# xmcd CD database file
#
# Track frame offsets:
#	150
#	24853
#	61993
#	81368
#	101658
#	121718
#	161405
#	183773
#	195938
#	221180
#	233735
#	249225
#	270675
#	282180
#	299158
#
# Disc length: 4212 seconds
#
# Revision: 0
# Processed by: cddbd v1.5.2PL0 Copyright (c) Steve Scherf et al.
# Submitted via: CDex 1.51
#
DISCID=cd10720f
DTITLE=jean-louis mechali - tie break and 2nd set
DYEAR=1900
DGENRE=Jazz
TTITLE0=ricochets
TTITLE1=lembranca
TTITLE2=dream-ambulation dans la ville blanche
TTITLE3=halpgene
TTITLE4=villa les mimosas
TTITLE5=la grive ... envine
TTITLE6=la criee
TTITLE7=big bang
TTITLE8=ballade a contre-jour
TTITLE9=tamaris marine
TTITLE10=la galerie aux portraits
TTITLE11=night light and halflight
TTITLE12=the underdog
TTITLE13=derive de chaleur
TTITLE14=le fil du temps
EXTD=
EXTT0=
EXTT1=
EXTT2=
EXTT3=
EXTT4=
EXTT5=
EXTT6=
EXTT7=
EXTT8=
EXTT9=
EXTT10=
EXTT11=
EXTT12=
EXTT13=
EXTT14=
PLAYORDER=
